<svg width="22" height="22" viewBox="0 0 22 22" fill="none" xmlns="http://www.w3.org/2000/svg">
<path d="M11 22C17.0751 22 22 17.0751 22 11C22 4.92487 17.0751 0 11 0C4.92487 0 0 4.92487 0 11C0 17.0751 4.92487 22 11 22Z" fill="url(#paint0_linear)"/>
<path d="M18.876 11.1338H16.9369C16.9369 7.18196 13.7221 3.97852 9.75612 3.97852C5.83931 3.97852 2.65489 7.10353 2.57695 10.9877C2.49632 15.0027 6.27652 18.4892 10.3063 18.4892H10.8132C14.366 18.4892 19.1277 15.7179 19.8717 12.3413C20.0091 11.7189 19.5157 11.1338 18.876 11.1338ZM6.87444 11.3099C6.87444 11.8383 6.44067 12.2706 5.91032 12.2706C5.37996 12.2706 4.94621 11.8381 4.94621 11.3099V9.7557C4.94621 9.22724 5.37996 8.79501 5.91032 8.79501C6.44067 8.79501 6.87444 9.22724 6.87444 9.7557V11.3099ZM10.2222 11.3099C10.2222 11.8383 9.78847 12.2706 9.25814 12.2706C8.72775 12.2706 8.29403 11.8381 8.29403 11.3099V9.7557C8.29403 9.22724 8.72794 8.79501 9.25814 8.79501C9.78847 8.79501 10.2222 9.22724 10.2222 9.7557V11.3099Z" fill="url(#paint1_linear)"/>
<defs>
<linearGradient id="paint0_linear" x1="11" y1="0" x2="11" y2="22" gradientUnits="userSpaceOnUse">
<stop stop-color="#534BB1"/>
<stop offset="1" stop-color="#551BF9"/>
</linearGradient>
<linearGradient id="paint1_linear" x1="11.2353" y1="3.97852" x2="11.2353" y2="18.4892" gradientUnits="userSpaceOnUse">
<stop stop-color="white"/>
<stop offset="1" stop-color="white" stop-opacity="0.82"/>
</linearGradient>
</defs>
</svg>
