<svg width="22" height="18" viewBox="0 0 22 18" fill="none" xmlns="http://www.w3.org/2000/svg">
<path d="M3.71693 13.4658C3.84898 13.3339 4.02799 13.2598 4.21462 13.2598H21.4367C21.7504 13.2598 21.9075 13.6391 21.6855 13.8609L18.2825 17.2612C18.1505 17.3932 17.9714 17.4673 17.7848 17.4673H0.562742C0.249011 17.4673 0.0919547 17.0879 0.313886 16.8661L3.71693 13.4658Z" fill="#00FFA3"/>
<path d="M3.71742 0.770008C3.84946 0.638074 4.02848 0.563965 4.21511 0.563965H21.4372C21.7509 0.563965 21.9079 0.943337 21.686 1.16509L18.283 4.56544C18.151 4.69736 17.9719 4.77146 17.7853 4.77146H0.563231C0.249499 4.77146 0.092443 4.39209 0.314374 4.17035L3.71742 0.770008Z" fill="#00FFA3"/>
<path d="M18.2825 7.103C18.1505 6.97108 17.9714 6.89697 17.7848 6.89697H0.562742C0.249011 6.89697 0.0919547 7.27631 0.313886 7.49809L3.71693 10.8984C3.84898 11.0303 4.02799 11.1045 4.21462 11.1045H21.4367C21.7504 11.1045 21.9075 10.7251 21.6855 10.5033L18.2825 7.103Z" fill="#00FFA3"/>
</svg>
