<svg width="22" height="22" viewBox="0 0 22 22" fill="none" xmlns="http://www.w3.org/2000/svg">
<path d="M11.1217 21.1691C11.3536 21.1691 11.5417 21.3551 11.5417 21.5846C11.5417 21.814 11.3536 22 11.1217 22C10.8897 22 10.7016 21.814 10.7016 21.5846C10.7016 21.3551 10.8897 21.1691 11.1217 21.1691ZM10.6653 1.32322C10.8706 1.34017 11.0364 1.49572 11.0642 1.69738L11.5638 5.32749C11.7316 6.5268 13.1781 7.04646 14.071 6.23147L19.0767 1.67532C19.1974 1.56542 19.3855 1.57304 19.4968 1.69233C19.5988 1.80179 19.6019 1.96936 19.5039 2.08238L15.1388 7.11759C14.3352 8.04291 14.9281 9.4878 16.1531 9.59097L20.0046 9.96225C20.1964 9.98072 20.3368 10.1493 20.318 10.3389C20.3026 10.4952 20.1822 10.6214 20.0252 10.6459L15.9781 11.2779C14.8031 11.438 14.271 12.8295 15.0352 13.7335L16.458 15.4108C16.5726 15.5459 16.5547 15.7472 16.4179 15.8605C16.302 15.9565 16.1342 15.9602 16.0141 15.8694L14.2602 14.5449C13.3138 13.8331 11.9495 14.4381 11.8495 15.6161L11.463 20.2102C11.447 20.4 11.2784 20.541 11.0863 20.5252C10.9233 20.5119 10.7916 20.3884 10.7695 20.2283L10.1566 15.7905C9.99234 14.5911 8.54587 14.0715 7.6494 14.8865L2.32427 19.7354C2.21405 19.8357 2.04234 19.8288 1.94075 19.7199C1.84755 19.6199 1.84471 19.467 1.93415 19.3638L6.58159 14.0004C7.38518 13.0751 6.79584 11.6301 5.57082 11.527L1.71847 11.1556C1.52665 11.1372 1.38632 10.9685 1.40504 10.779C1.42047 10.6227 1.54086 10.4965 1.69785 10.4719L5.74225 9.84013C6.9173 9.67996 7.453 8.28849 6.68874 7.38451L5.72021 6.24273C5.57806 6.07519 5.60033 5.8255 5.76996 5.68508C5.91369 5.56605 6.1218 5.56149 6.27075 5.67408L7.46011 6.5731C8.4066 7.28488 9.77085 6.6799 9.87088 5.50193L10.1908 1.71972C10.211 1.48077 10.4235 1.30325 10.6653 1.32322ZM0.420051 10.3544C0.652039 10.3544 0.840103 10.5405 0.840103 10.7699C0.840103 10.9994 0.652039 11.1854 0.420051 11.1854C0.188063 11.1854 0 10.9994 0 10.7699C0 10.5405 0.188063 10.3544 0.420051 10.3544ZM21.4872 9.93261C21.7192 9.93261 21.9073 10.1186 21.9073 10.3481C21.9073 10.5775 21.7192 10.7635 21.4872 10.7635C21.2553 10.7635 21.0672 10.5775 21.0672 10.3481C21.0672 10.1186 21.2553 9.93261 21.4872 9.93261ZM10.6047 0C10.8367 0 11.0247 0.186006 11.0247 0.415456C11.0247 0.644908 10.8367 0.830912 10.6047 0.830912C10.3727 0.830912 10.1846 0.644908 10.1846 0.415456C10.1846 0.186006 10.3727 0 10.6047 0Z" fill="url(#paint0_linear)"/>
<path d="M10.8561 14.4837C13.0475 14.4837 14.8239 12.7267 14.8239 10.5592C14.8239 8.39182 13.0475 6.63477 10.8561 6.63477C8.66468 6.63477 6.88818 8.39182 6.88818 10.5592C6.88818 12.7267 8.66468 14.4837 10.8561 14.4837Z" fill="url(#paint1_radial)"/>
<defs>
<linearGradient id="paint0_linear" x1="2.86244" y1="3.49943" x2="15.4252" y2="14.8723" gradientUnits="userSpaceOnUse">
<stop stop-color="#FFC10B"/>
<stop offset="1" stop-color="#FB3F2E"/>
</linearGradient>
<radialGradient id="paint1_radial" cx="0" cy="0" r="1" gradientUnits="userSpaceOnUse" gradientTransform="translate(9.94992 9.11039) rotate(67.5196) scale(5.76876 5.82484)">
<stop stop-color="#FFC10B"/>
<stop offset="1" stop-color="#FB3F2E"/>
</radialGradient>
</defs>
</svg>
