<svg width="151" height="18" viewBox="0 0 151 18" fill="none" xmlns="http://www.w3.org/2000/svg">
<path d="M10.28 0.200195H13.592V17.0002H11.072L3.872 6.7282V17.0002H0.559998V0.200195H3.08L10.28 10.4482V0.200195Z" fill="white"/>
<path d="M16.7084 0.200195H20.0204V17.0002H16.7084V0.200195Z" fill="white"/>
<path d="M32.8503 0.200195H36.1623V17.0002H33.6423L26.4423 6.7282V17.0002H23.1303V0.200195H25.6503L32.8503 10.4482V0.200195Z" fill="white"/>
<path d="M43.8672 17.3362C41.2272 17.3362 39.3792 16.2722 38.3232 14.1442L41.1792 12.5122C41.7072 13.5682 42.6032 14.0962 43.8672 14.0962C44.7472 14.0962 45.4032 13.8882 45.8352 13.4722C46.2672 13.0562 46.4832 12.4882 46.4832 11.7682V0.200195H49.7712V11.7682C49.7712 13.5282 49.2192 14.8962 48.1152 15.8722C47.0112 16.8482 45.5952 17.3362 43.8672 17.3362Z" fill="white"/>
<path d="M63.0866 17.0002L62.0786 13.9762H55.3826L54.3746 17.0002H50.7986L56.6786 0.200195H60.7826L66.6866 17.0002H63.0866ZM56.4386 10.8802H61.0466L58.7426 4.0162L56.4386 10.8802Z" fill="white"/>
<path d="M87.4458 4.6642C88.8218 4.6642 89.9178 5.1122 90.7338 6.0082C91.5658 6.9042 91.9818 8.1042 91.9818 9.6082V17.0002H88.8858V9.8242C88.8858 9.1042 88.7098 8.5442 88.3578 8.1442C88.0058 7.7442 87.5098 7.5442 86.8698 7.5442C86.1658 7.5442 85.6138 7.7762 85.2138 8.2402C84.8298 8.7042 84.6378 9.3762 84.6378 10.2562V17.0002H81.5418V9.8242C81.5418 9.1042 81.3658 8.5442 81.0138 8.1442C80.6618 7.7442 80.1658 7.5442 79.5258 7.5442C78.8378 7.5442 78.2858 7.7762 77.8698 8.2402C77.4698 8.7042 77.2698 9.3762 77.2698 10.2562V17.0002H74.1738V5.0002H77.2698V6.2722C77.9898 5.2002 79.1018 4.6642 80.6058 4.6642C82.0778 4.6642 83.1658 5.2402 83.8698 6.3922C84.6698 5.2402 85.8618 4.6642 87.4458 4.6642Z" fill="white"/>
<path d="M103.731 5.0002H106.827V17.0002H103.731V15.5842C102.803 16.7522 101.499 17.3362 99.8193 17.3362C98.2193 17.3362 96.8433 16.7282 95.6913 15.5122C94.5553 14.2802 93.9873 12.7762 93.9873 11.0002C93.9873 9.2242 94.5553 7.7282 95.6913 6.5122C96.8433 5.2802 98.2193 4.6642 99.8193 4.6642C101.499 4.6642 102.803 5.2482 103.731 6.4162V5.0002ZM98.0193 13.4482C98.6433 14.0722 99.4353 14.3842 100.395 14.3842C101.355 14.3842 102.147 14.0722 102.771 13.4482C103.411 12.8082 103.731 11.9922 103.731 11.0002C103.731 10.0082 103.411 9.2002 102.771 8.5762C102.147 7.9362 101.355 7.6162 100.395 7.6162C99.4353 7.6162 98.6433 7.9362 98.0193 8.5762C97.3953 9.2002 97.0833 10.0082 97.0833 11.0002C97.0833 11.9922 97.3953 12.8082 98.0193 13.4482Z" fill="white"/>
<path d="M112.731 7.0642C113.019 6.2962 113.491 5.7202 114.147 5.3362C114.819 4.9522 115.563 4.7602 116.379 4.7602V8.2162C115.435 8.1042 114.587 8.2962 113.835 8.7922C113.099 9.2882 112.731 10.1122 112.731 11.2642V17.0002H109.635V5.0002H112.731V7.0642Z" fill="white"/>
<path d="M129.253 17.0002H125.653L121.285 11.5522V17.0002H118.189V0.200195H121.285V10.2802L125.413 5.0002H129.109L124.285 10.9282L129.253 17.0002Z" fill="white"/>
<path d="M132.548 12.2722C132.964 13.7762 134.092 14.5282 135.932 14.5282C137.116 14.5282 138.012 14.1282 138.62 13.3282L141.116 14.7682C139.932 16.4802 138.188 17.3362 135.884 17.3362C133.9 17.3362 132.308 16.7362 131.108 15.5362C129.908 14.3362 129.308 12.8242 129.308 11.0002C129.308 9.1922 129.9 7.6882 131.084 6.4882C132.268 5.2722 133.788 4.6642 135.644 4.6642C137.404 4.6642 138.852 5.2722 139.988 6.4882C141.14 7.7042 141.716 9.2082 141.716 11.0002C141.716 11.4002 141.676 11.8242 141.596 12.2722H132.548ZM132.5 9.8722H138.62C138.444 9.0562 138.076 8.4482 137.516 8.0482C136.972 7.6482 136.348 7.4482 135.644 7.4482C134.812 7.4482 134.124 7.6642 133.58 8.0962C133.036 8.5122 132.676 9.1042 132.5 9.8722Z" fill="white"/>
<path d="M146.973 7.0642C147.261 6.2962 147.733 5.7202 148.389 5.3362C149.061 4.9522 149.805 4.7602 150.621 4.7602V8.2162C149.677 8.1042 148.829 8.2962 148.077 8.7922C147.341 9.2882 146.973 10.1122 146.973 11.2642V17.0002H143.877V5.0002H146.973V7.0642Z" fill="white"/>
</svg>
