<svg width="18" height="18" viewBox="0 0 18 18" fill="none" xmlns="http://www.w3.org/2000/svg">
<path d="M17.6828 16.763L15.5132 12.4476C15.2864 12.0231 14.7929 11.8158 14.3309 11.951C14.0921 12.0085 13.846 12.0295 13.6009 12.0131C12.1872 11.9183 11.0748 10.7688 11.0264 9.35283C11.0116 8.34787 12.052 7.32219 12.0609 7.31332C12.3928 6.96888 12.4796 6.45616 12.2797 6.02163L9.43612 0.381953C9.33681 0.088116 9.01811 -0.0695923 8.72427 0.0297157C8.55835 0.0857952 8.42808 0.216035 8.37203 0.381953L5.5374 6.01868C5.3374 6.45322 5.42424 6.9659 5.75615 7.31038C5.75615 7.31038 6.80544 8.34492 6.79069 9.34988C6.7423 10.7659 5.62982 11.9154 4.2162 12.0101C3.97109 12.0287 3.72457 12.0077 3.48612 11.948C3.02415 11.8128 2.53069 12.0201 2.30381 12.4446L0.125339 16.763C0.00614883 16.9674 0.00504041 17.2197 0.122395 17.4251C0.255441 17.6188 0.478754 17.7305 0.713567 17.7207H5.26549C5.73921 17.7021 6.16567 17.4284 6.37984 17.0054C6.37984 16.9847 7.43212 14.7147 8.89524 14.7147C10.3584 14.7147 11.3988 16.9847 11.4106 17.0054C11.6263 17.4311 12.0569 17.7053 12.5339 17.7207H17.0858C17.3206 17.7305 17.5439 17.6188 17.677 17.4251C17.797 17.2213 17.7993 16.9689 17.6828 16.763ZM9.16712 13.0357C9.08125 13.051 8.99424 13.0589 8.90702 13.0594C8.54554 13.0598 8.19881 12.9162 7.94342 12.6604C7.41799 12.1377 7.41574 11.288 7.93839 10.7626C8.1296 10.5704 8.37456 10.4406 8.64096 10.3903C9.37149 10.245 10.0815 10.7194 10.2267 11.45C10.3721 12.1805 9.89764 12.8905 9.16712 13.0357Z" fill="#BD2323"/>
</svg>
